<svg width="58" height="21" viewBox="0 0 58 21" fill="none" xmlns="http://www.w3.org/2000/svg">
<g clip-path="url(#clip0_1_927)">
<path d="M6.39784 20.9915C4.66967 20.9217 3.25578 20.4413 2.15023 19.549C1.93924 19.3786 1.43647 18.8675 1.26781 18.652C0.819489 18.0793 0.514691 17.5219 0.311392 16.9035C-0.314174 14.9999 0.00778004 12.502 1.23229 9.76054C2.28073 7.41353 3.89851 5.08575 6.72097 1.8618C7.13674 1.3874 8.37486 0 8.38285 0C8.38583 0 8.31834 0.118745 8.23341 0.263355C7.49954 1.51217 6.8716 2.98314 6.52952 4.25661C5.98 6.29999 6.04628 8.05357 6.72364 9.41331C7.19089 10.3501 7.99195 11.1615 8.89272 11.61C10.4697 12.395 12.7784 12.4599 15.5979 11.8C15.792 11.7543 25.4112 9.16018 36.9738 6.03514C48.5365 2.90979 57.9985 0.354742 58 0.356846C58.0033 0.359552 31.1366 12.039 17.1897 18.0982C14.9809 19.0575 14.3903 19.2998 13.3519 19.6702C10.6975 20.6172 8.31982 21.069 6.39784 20.9915Z" fill="black"/>
</g>
<defs>
<clipPath id="clip0_1_927">
<rect width="58" height="21" fill="white"/>
</clipPath>
</defs>
</svg>
